# xmcd
#
# Track frame offsets: 
#        150
#        19543
#        34598
#        48090
#        71905
#        89799
#        107717
#        115409
#        134887
#        156954
#        173270
#        186027
#        202830
#        224328
#        241993
#        264588
#        281635
#
# Disc length: 3968 seconds
#
# Revision: 0
# Processed by: cddbd v1.5.2PL0 Copyright (c) Steve Scherf et al.
# Submitted via: ExactAudioCopy v0.99pb4
#
DISCID=f50f7e11
DTITLE=Johnny V - Official limited Edition Bootleg CD #2
DYEAR=2006
DGENRE=Blues
TTITLE0=As Long as I'm Movin'
TTITLE1=Four Full Seasons Of Love
TTITLE2=Maxine
TTITLE3=Next Time You See Me
TTITLE4=Don't Bother me
TTITLE5=Walkin' Blues
TTITLE6=29 Ways
TTITLE7=Is This The Game To Play
TTITLE8=You Belong To Me
TTITLE9=Depression Blues
TTITLE10=Mail My Letter
TTITLE11=Achin' Head
TTITLE12=Borderline Runner
TTITLE13=Glidin' Slide
TTITLE14=Open Book
TTITLE15=Terra Firma Boogie
TTITLE16=Now I'm Good
EXTD=
EXTT0=
EXTT1=
EXTT2=
EXTT3=
EXTT4=
EXTT5=
EXTT6=
EXTT7=
EXTT8=
EXTT9=
EXTT10=
EXTT11=
EXTT12=
EXTT13=
EXTT14=
EXTT15=
EXTT16=
PLAYORDER=
